<?xml version="1.0" standalone="no"?>
<!DOCTYPE svg PUBLIC "-//W3C//DTD SVG 20010904//EN"
 "http://www.w3.org/TR/2001/REC-SVG-20010904/DTD/svg10.dtd">
<svg version="1.0" xmlns="http://www.w3.org/2000/svg"
 width="120.000000pt" height="120.000000pt" viewBox="0 0 120.000000 120.000000"
 preserveAspectRatio="xMidYMid meet">

<g transform="translate(0.000000,120.000000) scale(0.100000,-0.100000)"
fill="#000000" stroke="none">
<path d="M255 940 c-3 -6 -6 -175 -6 -376 0 -332 1 -368 17 -385 22 -25 69
-24 94 1 17 17 20 33 20 115 0 95 0 96 28 107 15 7 72 12 127 12 55 0 112 -5
128 -12 27 -11 27 -12 27 -110 0 -111 11 -132 67 -132 55 0 63 22 63 163 l0
127 -27 0 c-34 0 -103 31 -122 53 -11 14 -11 20 -1 32 16 20 28 19 75 -5 47
-24 93 -25 142 -5 91 38 112 87 113 258 0 157 -7 164 -84 88 -46 -46 -56 -51
-96 -51 -40 0 -50 5 -96 51 -73 72 -84 65 -84 -53 l0 -93 -84 3 c-76 4 -138
-7 -203 -34 -10 -4 -13 21 -13 106 0 61 -5 120 -10 131 -11 20 -64 27 -75 9z
m514 -228 c12 -22 -3 -42 -30 -42 -22 0 -33 28 -18 46 16 19 36 17 48 -4z
m166 -12 c0 -18 -6 -26 -23 -28 -24 -4 -38 18 -28 44 3 9 15 14 28 12 17 -2
23 -10 23 -28z"/>
</g>
</svg>
